<?xml version="1.0" encoding="UTF-8"?>
<svg xmlns="http://www.w3.org/2000/svg" viewBox="0 0 128 128" width="128" height="128"><clipPath id="clip_us"><circle cx="64.0" cy="64.0" r="61"/></clipPath><g clip-path="url(#clip_us)"><rect x="3.0" y="3.0" width="122" height="9.384615384615385" fill="#b22234"/><rect x="3.0" y="12.384615384615385" width="122" height="9.384615384615385" fill="#ffffff"/><rect x="3.0" y="21.76923076923077" width="122" height="9.384615384615385" fill="#b22234"/><rect x="3.0" y="31.153846153846153" width="122" height="9.384615384615385" fill="#ffffff"/><rect x="3.0" y="40.53846153846154" width="122" height="9.384615384615385" fill="#b22234"/><rect x="3.0" y="49.92307692307693" width="122" height="9.384615384615385" fill="#ffffff"/><rect x="3.0" y="59.30769230769231" width="122" height="9.384615384615385" fill="#b22234"/><rect x="3.0" y="68.6923076923077" width="122" height="9.384615384615385" fill="#ffffff"/><rect x="3.0" y="78.07692307692308" width="122" height="9.384615384615385" fill="#b22234"/><rect x="3.0" y="87.46153846153847" width="122" height="9.384615384615385" fill="#ffffff"/><rect x="3.0" y="96.84615384615385" width="122" height="9.384615384615385" fill="#b22234"/><rect x="3.0" y="106.23076923076924" width="122" height="9.384615384615385" fill="#ffffff"/><rect x="3.0" y="115.61538461538461" width="122" height="9.384615384615385" fill="#b22234"/><rect x="3.0" y="3.0" width="46.36" height="65.6923076923077" fill="#3c3b6e"/><g fill="#ffffff"><polygon points="6.709,7.087 6.971,7.894 7.820,7.894 7.133,8.393 7.395,9.201 6.709,8.702 6.022,9.201 6.284,8.393 5.598,7.894 6.446,7.894" /></g><g fill="#ffffff"><polygon points="14.497,7.087 14.760,7.894 15.608,7.894 14.922,8.393 15.184,9.201 14.497,8.702 13.811,9.201 14.073,8.393 13.386,7.894 14.235,7.894" /></g><g fill="#ffffff"><polygon points="22.286,7.087 22.548,7.894 23.397,7.894 22.710,8.393 22.972,9.201 22.286,8.702 21.599,9.201 21.861,8.393 21.175,7.894 22.023,7.894" /></g><g fill="#ffffff"><polygon points="30.074,7.087 30.337,7.894 31.185,7.894 30.499,8.393 30.761,9.201 30.074,8.702 29.388,9.201 29.650,8.393 28.963,7.894 29.812,7.894" /></g><g fill="#ffffff"><polygon points="37.863,7.087 38.125,7.894 38.974,7.894 38.287,8.393 38.549,9.201 37.863,8.702 37.176,9.201 37.438,8.393 36.752,7.894 37.600,7.894" /></g><g fill="#ffffff"><polygon points="45.651,7.087 45.914,7.894 46.762,7.894 46.076,8.393 46.338,9.201 45.651,8.702 44.965,9.201 45.227,8.393 44.540,7.894 45.389,7.894" /></g><g fill="#ffffff"><polygon points="11.577,13.985 11.839,14.792 12.688,14.792 12.001,15.291 12.263,16.098 11.577,15.599 10.890,16.098 11.152,15.291 10.466,14.792 11.314,14.792" /></g><g fill="#ffffff"><polygon points="21.312,13.985 21.575,14.792 22.423,14.792 21.737,15.291 21.999,16.098 21.312,15.599 20.626,16.098 20.888,15.291 20.201,14.792 21.050,14.792" /></g><g fill="#ffffff"><polygon points="31.048,13.985 31.310,14.792 32.159,14.792 31.472,15.291 31.734,16.098 31.048,15.599 30.361,16.098 30.623,15.291 29.937,14.792 30.785,14.792" /></g><g fill="#ffffff"><polygon points="40.783,13.985 41.046,14.792 41.894,14.792 41.208,15.291 41.470,16.098 40.783,15.599 40.097,16.098 40.359,15.291 39.672,14.792 40.521,14.792" /></g><g fill="#ffffff"><polygon points="50.519,13.985 50.781,14.792 51.630,14.792 50.943,15.291 51.206,16.098 50.519,15.599 49.832,16.098 50.095,15.291 49.408,14.792 50.257,14.792" /></g><g fill="#ffffff"><polygon points="6.709,20.882 6.971,21.690 7.820,21.690 7.133,22.189 7.395,22.996 6.709,22.497 6.022,22.996 6.284,22.189 5.598,21.690 6.446,21.690" /></g><g fill="#ffffff"><polygon points="14.497,20.882 14.760,21.690 15.608,21.690 14.922,22.189 15.184,22.996 14.497,22.497 13.811,22.996 14.073,22.189 13.386,21.690 14.235,21.690" /></g><g fill="#ffffff"><polygon points="22.286,20.882 22.548,21.690 23.397,21.690 22.710,22.189 22.972,22.996 22.286,22.497 21.599,22.996 21.861,22.189 21.175,21.690 22.023,21.690" /></g><g fill="#ffffff"><polygon points="30.074,20.882 30.337,21.690 31.185,21.690 30.499,22.189 30.761,22.996 30.074,22.497 29.388,22.996 29.650,22.189 28.963,21.690 29.812,21.690" /></g><g fill="#ffffff"><polygon points="37.863,20.882 38.125,21.690 38.974,21.690 38.287,22.189 38.549,22.996 37.863,22.497 37.176,22.996 37.438,22.189 36.752,21.690 37.600,21.690" /></g><g fill="#ffffff"><polygon points="45.651,20.882 45.914,21.690 46.762,21.690 46.076,22.189 46.338,22.996 45.651,22.497 44.965,22.996 45.227,22.189 44.540,21.690 45.389,21.690" /></g><g fill="#ffffff"><polygon points="11.577,27.780 11.839,28.587 12.688,28.587 12.001,29.086 12.263,29.894 11.577,29.395 10.890,29.894 11.152,29.086 10.466,28.587 11.314,28.587" /></g><g fill="#ffffff"><polygon points="21.312,27.780 21.575,28.587 22.423,28.587 21.737,29.086 21.999,29.894 21.312,29.395 20.626,29.894 20.888,29.086 20.201,28.587 21.050,28.587" /></g><g fill="#ffffff"><polygon points="31.048,27.780 31.310,28.587 32.159,28.587 31.472,29.086 31.734,29.894 31.048,29.395 30.361,29.894 30.623,29.086 29.937,28.587 30.785,28.587" /></g><g fill="#ffffff"><polygon points="40.783,27.780 41.046,28.587 41.894,28.587 41.208,29.086 41.470,29.894 40.783,29.395 40.097,29.894 40.359,29.086 39.672,28.587 40.521,28.587" /></g><g fill="#ffffff"><polygon points="50.519,27.780 50.781,28.587 51.630,28.587 50.943,29.086 51.206,29.894 50.519,29.395 49.832,29.894 50.095,29.086 49.408,28.587 50.257,28.587" /></g><g fill="#ffffff"><polygon points="6.709,34.678 6.971,35.485 7.820,35.485 7.133,35.984 7.395,36.791 6.709,36.292 6.022,36.791 6.284,35.984 5.598,35.485 6.446,35.485" /></g><g fill="#ffffff"><polygon points="14.497,34.678 14.760,35.485 15.608,35.485 14.922,35.984 15.184,36.791 14.497,36.292 13.811,36.791 14.073,35.984 13.386,35.485 14.235,35.485" /></g><g fill="#ffffff"><polygon points="22.286,34.678 22.548,35.485 23.397,35.485 22.710,35.984 22.972,36.791 22.286,36.292 21.599,36.791 21.861,35.984 21.175,35.485 22.023,35.485" /></g><g fill="#ffffff"><polygon points="30.074,34.678 30.337,35.485 31.185,35.485 30.499,35.984 30.761,36.791 30.074,36.292 29.388,36.791 29.650,35.984 28.963,35.485 29.812,35.485" /></g><g fill="#ffffff"><polygon points="37.863,34.678 38.125,35.485 38.974,35.485 38.287,35.984 38.549,36.791 37.863,36.292 37.176,36.791 37.438,35.984 36.752,35.485 37.600,35.485" /></g><g fill="#ffffff"><polygon points="45.651,34.678 45.914,35.485 46.762,35.485 46.076,35.984 46.338,36.791 45.651,36.292 44.965,36.791 45.227,35.984 44.540,35.485 45.389,35.485" /></g><g fill="#ffffff"><polygon points="11.577,41.576 11.839,42.383 12.688,42.383 12.001,42.882 12.263,43.689 11.577,43.190 10.890,43.689 11.152,42.882 10.466,42.383 11.314,42.383" /></g><g fill="#ffffff"><polygon points="21.312,41.576 21.575,42.383 22.423,42.383 21.737,42.882 21.999,43.689 21.312,43.190 20.626,43.689 20.888,42.882 20.201,42.383 21.050,42.383" /></g><g fill="#ffffff"><polygon points="31.048,41.576 31.310,42.383 32.159,42.383 31.472,42.882 31.734,43.689 31.048,43.190 30.361,43.689 30.623,42.882 29.937,42.383 30.785,42.383" /></g><g fill="#ffffff"><polygon points="40.783,41.576 41.046,42.383 41.894,42.383 41.208,42.882 41.470,43.689 40.783,43.190 40.097,43.689 40.359,42.882 39.672,42.383 40.521,42.383" /></g><g fill="#ffffff"><polygon points="50.519,41.576 50.781,42.383 51.630,42.383 50.943,42.882 51.206,43.689 50.519,43.190 49.832,43.689 50.095,42.882 49.408,42.383 50.257,42.383" /></g><g fill="#ffffff"><polygon points="6.709,48.473 6.971,49.280 7.820,49.281 7.133,49.779 7.395,50.587 6.709,50.088 6.022,50.587 6.284,49.779 5.598,49.281 6.446,49.280" /></g><g fill="#ffffff"><polygon points="14.497,48.473 14.760,49.280 15.608,49.281 14.922,49.779 15.184,50.587 14.497,50.088 13.811,50.587 14.073,49.779 13.386,49.281 14.235,49.280" /></g><g fill="#ffffff"><polygon points="22.286,48.473 22.548,49.280 23.397,49.281 22.710,49.779 22.972,50.587 22.286,50.088 21.599,50.587 21.861,49.779 21.175,49.281 22.023,49.280" /></g><g fill="#ffffff"><polygon points="30.074,48.473 30.337,49.280 31.185,49.281 30.499,49.779 30.761,50.587 30.074,50.088 29.388,50.587 29.650,49.779 28.963,49.281 29.812,49.280" /></g><g fill="#ffffff"><polygon points="37.863,48.473 38.125,49.280 38.974,49.281 38.287,49.779 38.549,50.587 37.863,50.088 37.176,50.587 37.438,49.779 36.752,49.281 37.600,49.280" /></g><g fill="#ffffff"><polygon points="45.651,48.473 45.914,49.280 46.762,49.281 46.076,49.779 46.338,50.587 45.651,50.088 44.965,50.587 45.227,49.779 44.540,49.281 45.389,49.280" /></g><g fill="#ffffff"><polygon points="11.577,55.371 11.839,56.178 12.688,56.178 12.001,56.677 12.263,57.484 11.577,56.986 10.890,57.484 11.152,56.677 10.466,56.178 11.314,56.178" /></g><g fill="#ffffff"><polygon points="21.312,55.371 21.575,56.178 22.423,56.178 21.737,56.677 21.999,57.484 21.312,56.986 20.626,57.484 20.888,56.677 20.201,56.178 21.050,56.178" /></g><g fill="#ffffff"><polygon points="31.048,55.371 31.310,56.178 32.159,56.178 31.472,56.677 31.734,57.484 31.048,56.986 30.361,57.484 30.623,56.677 29.937,56.178 30.785,56.178" /></g><g fill="#ffffff"><polygon points="40.783,55.371 41.046,56.178 41.894,56.178 41.208,56.677 41.470,57.484 40.783,56.986 40.097,57.484 40.359,56.677 39.672,56.178 40.521,56.178" /></g><g fill="#ffffff"><polygon points="50.519,55.371 50.781,56.178 51.630,56.178 50.943,56.677 51.206,57.484 50.519,56.986 49.832,57.484 50.095,56.677 49.408,56.178 50.257,56.178" /></g><g fill="#ffffff"><polygon points="6.709,62.269 6.971,63.076 7.820,63.076 7.133,63.575 7.395,64.382 6.709,63.883 6.022,64.382 6.284,63.575 5.598,63.076 6.446,63.076" /></g><g fill="#ffffff"><polygon points="14.497,62.269 14.760,63.076 15.608,63.076 14.922,63.575 15.184,64.382 14.497,63.883 13.811,64.382 14.073,63.575 13.386,63.076 14.235,63.076" /></g><g fill="#ffffff"><polygon points="22.286,62.269 22.548,63.076 23.397,63.076 22.710,63.575 22.972,64.382 22.286,63.883 21.599,64.382 21.861,63.575 21.175,63.076 22.023,63.076" /></g><g fill="#ffffff"><polygon points="30.074,62.269 30.337,63.076 31.185,63.076 30.499,63.575 30.761,64.382 30.074,63.883 29.388,64.382 29.650,63.575 28.963,63.076 29.812,63.076" /></g><g fill="#ffffff"><polygon points="37.863,62.269 38.125,63.076 38.974,63.076 38.287,63.575 38.549,64.382 37.863,63.883 37.176,64.382 37.438,63.575 36.752,63.076 37.600,63.076" /></g><g fill="#ffffff"><polygon points="45.651,62.269 45.914,63.076 46.762,63.076 46.076,63.575 46.338,64.382 45.651,63.883 44.965,64.382 45.227,63.575 44.540,63.076 45.389,63.076" /></g></g>
</svg>