<?xml version="1.0" encoding="UTF-8"?>
<svg xmlns="http://www.w3.org/2000/svg" viewBox="0 0 128 128" width="128" height="128"><circle cx="64.0" cy="64.0" r="61" fill="#de2910"/><polygon points="48.000,40.000 51.292,49.470 61.315,49.674 53.326,55.730 56.229,65.326 48.000,59.600 39.771,65.326 42.674,55.730 34.685,49.674 44.708,49.470" fill="#ffde00"/><polygon points="73.638,44.052 69.342,43.990 67.791,47.996 66.522,43.891 62.232,43.654 65.745,41.179 64.645,37.026 68.084,39.601 71.694,37.272 70.307,41.338" fill="#ffde00"/><polygon points="74.362,51.948 78.658,52.010 80.209,48.004 81.478,52.109 85.768,52.346 82.255,54.821 83.355,58.974 79.916,56.399 76.306,58.728 77.693,54.662" fill="#ffde00"/><polygon points="70.362,72.052 73.693,69.338 72.306,65.272 75.916,67.601 79.355,65.026 78.255,69.179 81.768,71.654 77.478,71.891 76.209,75.996 74.658,71.990" fill="#ffde00"/><polygon points="67.638,82.052 63.342,81.990 61.791,85.996 60.522,81.891 56.232,81.654 59.745,79.179 58.645,75.026 62.084,77.601 65.694,75.272 64.307,79.338" fill="#ffde00"/>
</svg>